# xmcd CD database file
#
# Track frame offsets:
#	150
#	12602
#	22877
#	34411
#	49133
#	64098
#	79181
#	92826
#	104668
#	119840
#	132366
#	140312
#	154812
#	168635
#	179371
#	192242
#	204458
#	216927
#
# Disc length: 3085 seconds
#
# Revision: 0
# Processed by: cddbd v1.4b41PL2 Copyright (c) Steve Scherf et al.
# Submitted via: Feurio! 1.61 - http://www.feurio.com
#
DISCID=0f0c0b12
DTITLE=Johnny Cash - American Country
DYEAR=1900
DGENRE=
TTITLE0=Sunday Morning coming down
TTITLE1=Get Rhythm
TTITLE2=Cry Cry Cry
TTITLE3=Tennnessee flat top box
TTITLE4=I still miss someone
TTITLE5=Blue train
TTITLE6=Don´t take your guns to town
TTITLE7=Home of the blues
TTITLE8=Guess things happen that way
TTITLE9=I got stripes 
TTITLE10=Hey porter
TTITLE11=Ballad of a teenage queen
TTITLE12=Wandet man
TTITLE13=Let him roll
TTITLE14=A backstage pass
TTITLE15=W Lee O´Daniel (and the light crust dough boys)
TTITLE16=The greatest Cowboy of them all
TTITLE17=Ballad of Ira Hayes
EXTD=U005
EXTT0=
EXTT1=
EXTT2=
EXTT3=
EXTT4=
EXTT5=
EXTT6=
EXTT7=
EXTT8=
EXTT9=
EXTT10=
EXTT11=
EXTT12=
EXTT13=
EXTT14=
EXTT15=
EXTT16=
EXTT17=
PLAYORDER=
